<?xml version="1.0" encoding="UTF-8" standalone="no"?>
<!-- Created with Inkscape (http://www.inkscape.org/) -->

<svg
   xmlns:osb="http://www.openswatchbook.org/uri/2009/osb"
   xmlns:dc="http://purl.org/dc/elements/1.1/"
   xmlns:cc="http://creativecommons.org/ns#"
   xmlns:rdf="http://www.w3.org/1999/02/22-rdf-syntax-ns#"
   xmlns:svg="http://www.w3.org/2000/svg"
   xmlns="http://www.w3.org/2000/svg"
   xmlns:sodipodi="http://sodipodi.sourceforge.net/DTD/sodipodi-0.dtd"
   xmlns:inkscape="http://www.inkscape.org/namespaces/inkscape"
   width="210mm"
   height="297mm"
   viewBox="0 0 210 297"
   version="1.1"
   id="svg8"
   sodipodi:docname="logo-5.svg"
   inkscape:version="0.92.2 (5c3e80d, 2017-08-06)"
   inkscape:export-filename="/home/cklein/Dokumente/wedding/website/images/logo.svg.png"
   inkscape:export-xdpi="96"
   inkscape:export-ydpi="96">
  <defs
     id="defs2">
    <marker
       style="overflow:visible"
       id="DistanceStart"
       refX="0.0"
       refY="0.0"
       orient="auto"
       inkscape:stockid="DistanceStart"
       inkscape:isstock="true">
      <g
         id="g2300">
        <path
           style="fill:none;stroke:#ffffff;stroke-width:1.15;stroke-linecap:square"
           d="M 0,0 L 2,0"
           id="path2306" />
        <path
           style="fill:#000000;fill-rule:evenodd;stroke:none"
           d="M 0,0 L 13,4 L 9,0 13,-4 L 0,0 z "
           id="path2302" />
        <path
           style="fill:none;stroke:#000000;stroke-width:1;stroke-linecap:square"
           d="M 0,-4 L 0,40"
           id="path2304" />
      </g>
    </marker>
    <marker
       style="overflow:visible"
       id="DistanceEnd"
       refX="0.0"
       refY="0.0"
       orient="auto"
       inkscape:stockid="DistanceEnd"
       inkscape:isstock="true">
      <g
         id="g2301">
        <path
           style="fill:none;stroke:#ffffff;stroke-width:1.15;stroke-linecap:square"
           d="M 0,0 L -2,0"
           id="path2316" />
        <path
           style="fill:#000000;fill-rule:evenodd;stroke:none"
           d="M 0,0 L -13,4 L -9,0 -13,-4 L 0,0 z "
           id="path2312" />
        <path
           style="fill:none;stroke:#000000;stroke-width:1;stroke-linecap:square"
           d="M 0,-4 L 0,40"
           id="path2314" />
      </g>
    </marker>
    <marker
       inkscape:stockid="Arrow1Lend"
       orient="auto"
       refY="0.0"
       refX="0.0"
       id="Arrow1Lend"
       style="overflow:visible;"
       inkscape:isstock="true">
      <path
         id="path3459"
         d="M 0.0,0.0 L 5.0,-5.0 L -12.5,0.0 L 5.0,5.0 L 0.0,0.0 z "
         style="fill-rule:evenodd;stroke:#000000;stroke-width:1.0pt;"
         transform="scale(0.8) rotate(180) translate(12.5,0)" />
    </marker>
    <linearGradient
       id="linearGradient2800"
       osb:paint="solid">
      <stop
         style="stop-color:#000000;stop-opacity:1;"
         offset="0"
         id="stop2798" />
    </linearGradient>
    <inkscape:perspective
       sodipodi:type="inkscape:persp3d"
       inkscape:vp_x="2.6458333 : 105.78869 : 1"
       inkscape:vp_y="0 : 1000 : 0"
       inkscape:vp_z="212.64583 : 105.78869 : 1"
       inkscape:persp3d-origin="107.64583 : 56.28869 : 1"
       id="perspective1304" />
  </defs>
  <sodipodi:namedview
     id="base"
     pagecolor="#ffffff"
     bordercolor="#666666"
     borderopacity="1.0"
     inkscape:pageopacity="0.0"
     inkscape:pageshadow="2"
     inkscape:zoom="1.4"
     inkscape:cx="523.46452"
     inkscape:cy="645.55505"
     inkscape:document-units="mm"
     inkscape:current-layer="layer1"
     showgrid="false"
     inkscape:measure-start="251.429,325.714"
     inkscape:measure-end="397.143,454.286"
     inkscape:window-width="1867"
     inkscape:window-height="1025"
     inkscape:window-x="53"
     inkscape:window-y="27"
     inkscape:window-maximized="1" />
  <metadata
     id="metadata5">
    <rdf:RDF>
      <cc:Work
         rdf:about="">
        <dc:format>image/svg+xml</dc:format>
        <dc:type
           rdf:resource="http://purl.org/dc/dcmitype/StillImage" />
        <dc:title></dc:title>
      </cc:Work>
    </rdf:RDF>
  </metadata>
  <g
     inkscape:label="Ebene 1"
     inkscape:groupmode="layer"
     id="layer1">
    <rect
       style="fill:#000000;fill-opacity:0;fill-rule:nonzero;stroke:none;stroke-width:0.26499999;stroke-linecap:round;stroke-miterlimit:4;stroke-dasharray:none;stroke-opacity:0"
       id="rect815"
       width="108.1012"
       height="55.940475"
       x="76.582047"
       y="173.32518"
       inkscape:export-xdpi="96"
       inkscape:export-ydpi="96" />
    <rect
       style="fill:#000000;fill-opacity:0;fill-rule:nonzero;stroke:#000000;stroke-width:0.26499999;stroke-linecap:round;stroke-miterlimit:4;stroke-dasharray:none;stroke-opacity:0"
       id="rect1295"
       width="113.39286"
       height="86.934517"
       x="71.290375"
       y="144.65862"
       inkscape:export-xdpi="96"
       inkscape:export-ydpi="96" />
    <rect
       style="fill:none;fill-opacity:0;fill-rule:nonzero;stroke:#000000;stroke-width:0.26499999;stroke-linecap:round;stroke-miterlimit:4;stroke-dasharray:0.26499999, 1.05999995;stroke-dashoffset:0;stroke-opacity:0"
       id="rect1300"
       width="142.11905"
       height="105.83333"
       x="42.580326"
       y="176.88043" />
    <g
       sodipodi:type="inkscape:box3d"
       id="g1306"
       style="fill:none;fill-opacity:0;fill-rule:nonzero;stroke:#000000;stroke-width:1.00157475;stroke-linecap:round;stroke-miterlimit:4;stroke-dasharray:1.00157475, 4.00629902;stroke-dashoffset:0;stroke-opacity:0"
       inkscape:perspectiveID="#perspective1304"
       inkscape:corner0="1.6456694 : 0.36061815 : 0 : 1"
       inkscape:corner7="0.68360777 : 0.20166609 : 0.25 : 1">
      <path
         sodipodi:type="inkscape:box3dside"
         id="path1308"
         style="fill:#353564;fill-rule:evenodd;stroke:none;stroke-linejoin:round"
         inkscape:box3dsidetype="6"
         d="m 42.333331,73.616068 v 60.080092 l 14.704071,4.96562 V 83.76875 Z"
         points="42.333331,133.69616 57.037402,138.66178 57.037402,83.76875 42.333331,73.616068 " />
      <path
         sodipodi:type="inkscape:box3dside"
         id="path1318"
         style="fill:#e9e9ff;fill-rule:evenodd;stroke:none;stroke-linejoin:round"
         inkscape:box3dsidetype="11"
         d="M 57.037402,83.76875 84.099788,30.310976 v 82.204914 l -27.062386,26.14589 z"
         points="84.099788,30.310976 84.099788,112.51589 57.037402,138.66178 57.037402,83.76875 " />
      <path
         sodipodi:type="inkscape:box3dside"
         id="path1310"
         style="fill:#4d4d9f;fill-rule:evenodd;stroke:none;stroke-linejoin:round"
         inkscape:box3dsidetype="5"
         d="M 42.333331,73.616068 65.011903,6.4187819 84.099788,30.310976 57.037402,83.76875 Z"
         points="65.011903,6.4187819 84.099788,30.310976 57.037402,83.76875 42.333331,73.616068 " />
      <path
         sodipodi:type="inkscape:box3dside"
         id="path1316"
         style="fill:#afafde;fill-rule:evenodd;stroke:none;stroke-linejoin:round"
         inkscape:box3dsidetype="13"
         d="m 42.333331,133.69616 22.678572,-32.86581 19.087885,11.68554 -27.062386,26.14589 z"
         points="65.011903,100.83035 84.099788,112.51589 57.037402,138.66178 42.333331,133.69616 " />
      <path
         sodipodi:type="inkscape:box3dside"
         id="path1314"
         style="fill:#d7d7ff;fill-rule:evenodd;stroke:none;stroke-linejoin:round"
         inkscape:box3dsidetype="14"
         d="M 65.011903,6.4187819 V 100.83035 l 19.087885,11.68554 V 30.310976 Z"
         points="65.011903,100.83035 84.099788,112.51589 84.099788,30.310976 65.011903,6.4187819 " />
      <path
         sodipodi:type="inkscape:box3dside"
         id="path1312"
         style="fill:#8686bf;fill-rule:evenodd;stroke:none;stroke-linejoin:round"
         inkscape:box3dsidetype="3"
         d="M 42.333331,73.616068 65.011903,6.4187819 V 100.83035 l -22.678572,32.86581 z"
         points="65.011903,6.4187819 65.011903,100.83035 42.333331,133.69616 42.333331,73.616068 " />
    </g>
    <rect
       style="fill:#000000;fill-opacity:0;fill-rule:nonzero;stroke:#000000;stroke-width:0.26499999;stroke-linecap:round;stroke-miterlimit:4;stroke-dasharray:none;stroke-opacity:0"
       id="rect817"
       width="80.130951"
       height="80.130951"
       x="44.832043"
       y="152.15851"
       inkscape:export-xdpi="96"
       inkscape:export-ydpi="96" />
    <rect
       style="fill:none;fill-opacity:0;fill-rule:nonzero;stroke:#000000;stroke-width:0.26499999;stroke-linecap:round;stroke-miterlimit:4;stroke-dasharray:0.26499998, 1.05999994;stroke-dashoffset:0;stroke-opacity:0"
       id="rect1302"
       width="120.95238"
       height="82.398811"
       x="44.832043"
       y="152.15851"
       inkscape:export-xdpi="96"
       inkscape:export-ydpi="96" />
    <path
       style="font-style:normal;font-variant:normal;font-weight:normal;font-stretch:normal;font-size:126.42120361px;line-height:1.25;font-family:'Times New Roman';-inkscape-font-specification:'Times New Roman, Normal';font-variant-ligatures:normal;font-variant-caps:normal;font-variant-numeric:normal;font-feature-settings:normal;text-align:start;letter-spacing:0px;word-spacing:0px;writing-mode:lr-tb;text-anchor:start;fill:#000000;fill-opacity:1;stroke-width:3.77952766"
       d="M 237.0625 386.79688 L 237.0625 394.99023 L 248.86133 394.99023 C 256.72837 394.99023 264.26901 396.76021 271.48047 400.30273 C 276.56127 402.95963 279.91963 406.06099 281.55859 409.60352 C 283.21398 413.50265 284.21864 420.51549 284.58789 430.5625 L 332.12109 430.5625 C 332.46986 420.98316 333.39465 414.34395 334.9082 410.70898 C 336.87496 405.98561 340.39772 402.44372 345.47852 400.08203 C 352.68997 396.68711 360.14842 394.99023 367.85156 394.99023 L 379.16016 394.99023 L 379.16016 386.79688 L 237.0625 386.79688 z M 430.29492 386.79688 L 430.29492 394.99023 L 437.91797 394.99023 C 446.1128 394.99023 451.92926 396.31771 455.37109 398.97461 C 458.81292 401.4839 460.53516 404.43711 460.53516 407.83203 C 460.53516 412.26019 458.3217 417.42586 453.89648 423.33008 C 452.3245 425.408 450.23592 427.8452 447.74219 430.5625 L 478.74805 430.5625 C 479.18008 430.19089 479.67944 429.75657 479.95703 429.5293 C 492.41318 419.19692 502.9012 411.74374 511.42383 407.16797 C 519.94646 402.4446 527.15831 399.27014 533.05859 397.64648 C 538.95888 396.02283 545.51511 395.13784 552.72656 394.99023 L 552.72656 386.79688 L 430.29492 386.79688 z M 284.75586 508.05664 L 284.75586 633.88867 C 284.75586 651.89653 282.78899 663.26296 278.85547 667.98633 C 272.62739 675.21899 262.62865 678.83398 248.86133 678.83398 L 237.0625 678.83398 L 237.0625 687.02734 L 379.16016 687.02734 L 379.16016 678.83398 L 367.85156 678.83398 C 359.98452 678.83398 352.52607 677.06401 345.47852 673.52148 C 340.23382 670.86459 336.79326 667.69013 335.1543 664 C 333.02364 659.12902 331.95703 649.09203 331.95703 633.88867 L 331.95703 537.13477 L 447.01367 639.64648 C 455.7002 647.32196 460.78079 652.56073 462.25586 655.36523 C 463.89483 658.16974 464.71484 661.34419 464.71484 664.88672 C 464.71484 668.42925 462.58358 671.6768 458.32227 674.62891 C 454.22485 677.43341 447.42398 678.83398 437.91797 678.83398 L 437.91797 687.02734 L 596.48633 687.02734 L 596.48633 678.83398 C 582.22731 677.94835 567.96995 674.25831 553.71094 667.76367 C 539.45192 661.12143 522.24133 648.72382 502.08203 630.56836 L 379.16016 520.52734 L 393.07422 508.05664 L 360.4082 508.05664 C 345.04591 520.83574 334.85901 529.33747 331.95703 531.82031 L 331.95703 508.05664 L 284.75586 508.05664 z "
       transform="scale(0.26458333)"
       id="text2848" />
    <ellipse
       style="fill:#ffffff;fill-opacity:0;fill-rule:nonzero;stroke:#000000;stroke-width:0.87861294;stroke-linecap:round;stroke-linejoin:round;stroke-miterlimit:4;stroke-dasharray:none;stroke-dashoffset:0;stroke-opacity:1;paint-order:markers fill stroke"
       id="path914"
       cx="104.41507"
       cy="-141.75581"
       rx="57.108097"
       ry="58.194279"
       transform="scale(1,-1)"
       inkscape:export-xdpi="96"
       inkscape:export-ydpi="96" />
    <rect
       style="fill:#ffffff;fill-opacity:1;fill-rule:nonzero;stroke:#ffffff;stroke-width:0.56653708;stroke-linecap:round;stroke-linejoin:round;stroke-miterlimit:4;stroke-dasharray:none;stroke-dashoffset:0;stroke-opacity:1;paint-order:markers fill stroke"
       id="rect3823"
       width="5.243144"
       height="26.050108"
       x="57.037403"
       y="112.61166"
       inkscape:export-xdpi="96"
       inkscape:export-ydpi="96" />
    <ellipse
       style="fill:#ffffff;fill-opacity:0;fill-rule:nonzero;stroke:#000000;stroke-width:1.02014279;stroke-linecap:round;stroke-linejoin:round;stroke-miterlimit:4;stroke-dasharray:none;stroke-dashoffset:0;stroke-opacity:1;paint-order:markers fill stroke"
       id="path914-1"
       cx="104.53407"
       cy="-141.35738"
       rx="66.926308"
       ry="66.943405"
       transform="scale(1,-1)"
       inkscape:export-xdpi="96"
       inkscape:export-ydpi="96" />
    <rect
       style="fill:#ffffff;fill-opacity:1;fill-rule:nonzero;stroke:#ffffff;stroke-width:0.47179547;stroke-linecap:round;stroke-linejoin:round;stroke-miterlimit:4;stroke-dasharray:none;stroke-dashoffset:0;stroke-opacity:1;paint-order:markers fill stroke"
       id="rect3823-2"
       width="3.2120543"
       height="29.489632"
       x="149.4397"
       y="113.12418"
       inkscape:export-xdpi="96"
       inkscape:export-ydpi="96" />
    <text
       xml:space="preserve"
       style="font-style:normal;font-weight:normal;font-size:19.0848732px;line-height:1.25;font-family:sans-serif;letter-spacing:0px;word-spacing:0px;fill:#000000;fill-opacity:1;"
       x="67.184219"
       y="120.24783"
       id="text859"
       transform="scale(0.91599887,1.0917044)"
       inkscape:export-xdpi="96"
       inkscape:export-ydpi="96"><tspan
         sodipodi:role="line"
         id="tspan857"
         x="67.184219"
         y="120.24783"
         style="font-style:normal;font-variant:normal;font-weight:normal;font-stretch:normal;font-size:19.0848732px;font-family:'England Hand DB';-inkscape-font-specification:'England Hand DB, Normal';font-variant-ligatures:normal;font-variant-caps:normal;font-variant-numeric:normal;font-feature-settings:normal;text-align:start;writing-mode:lr-tb;text-anchor:start;">Pam &amp; Chris</tspan></text>
  </g>
</svg>
